<mxfile host="app.diagrams.net" modified="2022-02-18T04:16:54.168Z" agent="5.0 (Macintosh; Intel Mac OS X 10_15_7) AppleWebKit/537.36 (KHTML, like Gecko) Chrome/98.0.4758.102 Safari/537.36" etag="8NcU9104TfjIvVzvFO4d" version="16.5.6" type="github">
  <diagram id="C5RBs43oDa-KdzZeNtuy" name="Page-1">
    <mxGraphModel dx="2467" dy="1293" grid="1" gridSize="10" guides="1" tooltips="1" connect="1" arrows="1" fold="1" page="1" pageScale="1" pageWidth="827" pageHeight="1169" math="0" shadow="0">
      <root>
        <mxCell id="WIyWlLk6GJQsqaUBKTNV-0" />
        <mxCell id="WIyWlLk6GJQsqaUBKTNV-1" parent="WIyWlLk6GJQsqaUBKTNV-0" />
        <mxCell id="WIyWlLk6GJQsqaUBKTNV-2" value="" style="rounded=0;html=1;jettySize=auto;orthogonalLoop=1;fontSize=11;endArrow=block;endFill=0;endSize=8;strokeWidth=1;shadow=0;labelBackgroundColor=none;edgeStyle=orthogonalEdgeStyle;" parent="WIyWlLk6GJQsqaUBKTNV-1" source="WIyWlLk6GJQsqaUBKTNV-3" target="WIyWlLk6GJQsqaUBKTNV-6" edge="1">
          <mxGeometry relative="1" as="geometry" />
        </mxCell>
        <mxCell id="WIyWlLk6GJQsqaUBKTNV-3" value="开始拖资源到时间轴" style="rounded=1;whiteSpace=wrap;html=1;fontSize=12;glass=0;strokeWidth=1;shadow=0;fillColor=#008a00;strokeColor=#005700;fontColor=#ffffff;" parent="WIyWlLk6GJQsqaUBKTNV-1" vertex="1">
          <mxGeometry x="175" y="50" width="120" height="40" as="geometry" />
        </mxCell>
        <mxCell id="WIyWlLk6GJQsqaUBKTNV-4" value="Yes" style="rounded=0;html=1;jettySize=auto;orthogonalLoop=1;fontSize=11;endArrow=block;endFill=0;endSize=8;strokeWidth=1;shadow=0;labelBackgroundColor=none;edgeStyle=orthogonalEdgeStyle;" parent="WIyWlLk6GJQsqaUBKTNV-1" source="WIyWlLk6GJQsqaUBKTNV-6" target="WIyWlLk6GJQsqaUBKTNV-10" edge="1">
          <mxGeometry y="20" relative="1" as="geometry">
            <mxPoint as="offset" />
          </mxGeometry>
        </mxCell>
        <mxCell id="WIyWlLk6GJQsqaUBKTNV-5" value="No" style="edgeStyle=orthogonalEdgeStyle;rounded=0;html=1;jettySize=auto;orthogonalLoop=1;fontSize=11;endArrow=block;endFill=0;endSize=8;strokeWidth=1;shadow=0;labelBackgroundColor=none;" parent="WIyWlLk6GJQsqaUBKTNV-1" source="WIyWlLk6GJQsqaUBKTNV-6" target="WIyWlLk6GJQsqaUBKTNV-7" edge="1">
          <mxGeometry y="10" relative="1" as="geometry">
            <mxPoint as="offset" />
          </mxGeometry>
        </mxCell>
        <mxCell id="WIyWlLk6GJQsqaUBKTNV-6" value="是否接受&lt;br&gt;该类型资源" style="rhombus;whiteSpace=wrap;html=1;shadow=0;fontFamily=Helvetica;fontSize=12;align=center;strokeWidth=1;spacing=6;spacingTop=-4;fillColor=#008a00;fontColor=#ffffff;strokeColor=#005700;" parent="WIyWlLk6GJQsqaUBKTNV-1" vertex="1">
          <mxGeometry x="175" y="160" width="120" height="100" as="geometry" />
        </mxCell>
        <mxCell id="WIyWlLk6GJQsqaUBKTNV-7" value="结束" style="rounded=1;whiteSpace=wrap;html=1;fontSize=12;glass=0;strokeWidth=1;shadow=0;fillColor=#a20025;fontColor=#ffffff;strokeColor=#6F0000;" parent="WIyWlLk6GJQsqaUBKTNV-1" vertex="1">
          <mxGeometry x="414" y="190" width="120" height="40" as="geometry" />
        </mxCell>
        <mxCell id="WIyWlLk6GJQsqaUBKTNV-8" value="Yes" style="rounded=0;html=1;jettySize=auto;orthogonalLoop=1;fontSize=11;endArrow=block;endFill=0;endSize=8;strokeWidth=1;shadow=0;labelBackgroundColor=none;edgeStyle=orthogonalEdgeStyle;entryX=0.5;entryY=0;entryDx=0;entryDy=0;" parent="WIyWlLk6GJQsqaUBKTNV-1" source="WIyWlLk6GJQsqaUBKTNV-10" target="kVo2EOnCKwho9ZSmZPj_-33" edge="1">
          <mxGeometry x="0.3333" y="20" relative="1" as="geometry">
            <mxPoint as="offset" />
          </mxGeometry>
        </mxCell>
        <mxCell id="WIyWlLk6GJQsqaUBKTNV-10" value="是否包含视觉资源" style="rhombus;whiteSpace=wrap;html=1;shadow=0;fontFamily=Helvetica;fontSize=12;align=center;strokeWidth=1;spacing=6;spacingTop=-4;fillColor=#008a00;fontColor=#ffffff;strokeColor=#005700;" parent="WIyWlLk6GJQsqaUBKTNV-1" vertex="1">
          <mxGeometry x="180" y="310" width="110" height="110" as="geometry" />
        </mxCell>
        <mxCell id="kihT8yTP-zsvNt_6NwiB-5" value="" style="edgeStyle=orthogonalEdgeStyle;rounded=0;orthogonalLoop=1;jettySize=auto;html=1;entryX=1;entryY=0.5;entryDx=0;entryDy=0;endArrow=block;endFill=0;" edge="1" parent="WIyWlLk6GJQsqaUBKTNV-1" source="WIyWlLk6GJQsqaUBKTNV-11" target="VnIIeza6wGG-whXCrfQa-4">
          <mxGeometry relative="1" as="geometry">
            <mxPoint x="65" y="695" as="targetPoint" />
          </mxGeometry>
        </mxCell>
        <mxCell id="kihT8yTP-zsvNt_6NwiB-6" value="No" style="edgeLabel;html=1;align=center;verticalAlign=middle;resizable=0;points=[];" vertex="1" connectable="0" parent="kihT8yTP-zsvNt_6NwiB-5">
          <mxGeometry x="0.0353" y="-1" relative="1" as="geometry">
            <mxPoint y="-14" as="offset" />
          </mxGeometry>
        </mxCell>
        <mxCell id="WIyWlLk6GJQsqaUBKTNV-11" value="鼠标在主轨道&lt;br&gt;及以上位置" style="rhombus;whiteSpace=wrap;html=1;rounded=0;fillColor=#008a00;fontColor=#ffffff;strokeColor=#005700;" parent="WIyWlLk6GJQsqaUBKTNV-1" vertex="1">
          <mxGeometry x="170" y="640" width="130" height="110" as="geometry" />
        </mxCell>
        <mxCell id="kVo2EOnCKwho9ZSmZPj_-0" value="鼠标在轨道&lt;br&gt;中间区域" style="rhombus;whiteSpace=wrap;html=1;rounded=0;fillColor=#008a00;fontColor=#ffffff;strokeColor=#005700;" parent="WIyWlLk6GJQsqaUBKTNV-1" vertex="1">
          <mxGeometry x="177.5" y="815" width="115" height="90" as="geometry" />
        </mxCell>
        <mxCell id="kVo2EOnCKwho9ZSmZPj_-3" value="Yes" style="rounded=0;html=1;jettySize=auto;orthogonalLoop=1;fontSize=11;endArrow=block;endFill=0;endSize=8;strokeWidth=1;shadow=0;labelBackgroundColor=none;edgeStyle=orthogonalEdgeStyle;exitX=0.5;exitY=1;exitDx=0;exitDy=0;entryX=0.5;entryY=0;entryDx=0;entryDy=0;" parent="WIyWlLk6GJQsqaUBKTNV-1" source="WIyWlLk6GJQsqaUBKTNV-11" target="kVo2EOnCKwho9ZSmZPj_-0" edge="1">
          <mxGeometry x="0.3333" y="20" relative="1" as="geometry">
            <mxPoint as="offset" />
            <mxPoint x="245" y="605" as="sourcePoint" />
            <mxPoint x="245" y="685" as="targetPoint" />
          </mxGeometry>
        </mxCell>
        <mxCell id="kVo2EOnCKwho9ZSmZPj_-4" value="Yes" style="rounded=0;html=1;jettySize=auto;orthogonalLoop=1;fontSize=11;endArrow=block;endFill=0;endSize=8;strokeWidth=1;shadow=0;labelBackgroundColor=none;edgeStyle=orthogonalEdgeStyle;exitX=0.5;exitY=1;exitDx=0;exitDy=0;entryX=0.5;entryY=0;entryDx=0;entryDy=0;" parent="WIyWlLk6GJQsqaUBKTNV-1" source="kVo2EOnCKwho9ZSmZPj_-0" target="kVo2EOnCKwho9ZSmZPj_-5" edge="1">
          <mxGeometry x="0.3333" y="20" relative="1" as="geometry">
            <mxPoint as="offset" />
            <mxPoint x="245" y="725" as="sourcePoint" />
            <mxPoint x="235" y="915" as="targetPoint" />
          </mxGeometry>
        </mxCell>
        <mxCell id="kVo2EOnCKwho9ZSmZPj_-5" value="是否存在资源重叠" style="rhombus;whiteSpace=wrap;html=1;rounded=0;fillColor=#008a00;fontColor=#ffffff;strokeColor=#005700;" parent="WIyWlLk6GJQsqaUBKTNV-1" vertex="1">
          <mxGeometry x="175" y="1050" width="120" height="70" as="geometry" />
        </mxCell>
        <mxCell id="kVo2EOnCKwho9ZSmZPj_-6" value="Yes" style="rounded=0;html=1;jettySize=auto;orthogonalLoop=1;fontSize=11;endArrow=block;endFill=0;endSize=8;strokeWidth=1;shadow=0;labelBackgroundColor=none;edgeStyle=orthogonalEdgeStyle;entryX=0.5;entryY=0;entryDx=0;entryDy=0;exitX=0.5;exitY=1;exitDx=0;exitDy=0;" parent="WIyWlLk6GJQsqaUBKTNV-1" source="kVo2EOnCKwho9ZSmZPj_-5" target="kVo2EOnCKwho9ZSmZPj_-7" edge="1">
          <mxGeometry x="0.3333" y="20" relative="1" as="geometry">
            <mxPoint as="offset" />
            <mxPoint x="290" y="1015" as="sourcePoint" />
            <mxPoint x="235" y="1035" as="targetPoint" />
          </mxGeometry>
        </mxCell>
        <mxCell id="kVo2EOnCKwho9ZSmZPj_-7" value="轨道上方新建轨道&lt;br&gt;并加入资源" style="whiteSpace=wrap;html=1;rounded=1;glass=0;strokeWidth=1;shadow=0;fillColor=#1ba1e2;fontColor=#ffffff;strokeColor=#006EAF;" parent="WIyWlLk6GJQsqaUBKTNV-1" vertex="1">
          <mxGeometry x="175" y="1240" width="120" height="60" as="geometry" />
        </mxCell>
        <mxCell id="kVo2EOnCKwho9ZSmZPj_-15" value="是否在顶部边框&lt;br&gt;及以上" style="rhombus;whiteSpace=wrap;html=1;rounded=0;fillColor=#008a00;fontColor=#ffffff;strokeColor=#005700;" parent="WIyWlLk6GJQsqaUBKTNV-1" vertex="1">
          <mxGeometry x="414" y="830" width="160" height="60" as="geometry" />
        </mxCell>
        <mxCell id="kVo2EOnCKwho9ZSmZPj_-18" value="No" style="edgeStyle=orthogonalEdgeStyle;rounded=0;html=1;jettySize=auto;orthogonalLoop=1;fontSize=11;endArrow=block;endFill=0;endSize=8;strokeWidth=1;shadow=0;labelBackgroundColor=none;entryX=0;entryY=0.5;entryDx=0;entryDy=0;exitX=1;exitY=0.5;exitDx=0;exitDy=0;" parent="WIyWlLk6GJQsqaUBKTNV-1" source="kVo2EOnCKwho9ZSmZPj_-0" target="kVo2EOnCKwho9ZSmZPj_-15" edge="1">
          <mxGeometry y="10" relative="1" as="geometry">
            <mxPoint as="offset" />
            <mxPoint x="300" y="550" as="sourcePoint" />
            <mxPoint x="440" y="550" as="targetPoint" />
          </mxGeometry>
        </mxCell>
        <mxCell id="kVo2EOnCKwho9ZSmZPj_-19" value="上方新建视觉轨道&lt;br&gt;并加入资源" style="whiteSpace=wrap;html=1;rounded=1;glass=0;strokeWidth=1;shadow=0;fillColor=#1ba1e2;fontColor=#ffffff;strokeColor=#006EAF;" parent="WIyWlLk6GJQsqaUBKTNV-1" vertex="1">
          <mxGeometry x="434" y="965" width="120" height="60" as="geometry" />
        </mxCell>
        <mxCell id="kVo2EOnCKwho9ZSmZPj_-21" value="Yes" style="edgeStyle=orthogonalEdgeStyle;rounded=0;html=1;jettySize=auto;orthogonalLoop=1;fontSize=11;endArrow=block;endFill=0;endSize=8;strokeWidth=1;shadow=0;labelBackgroundColor=none;entryX=0.5;entryY=0;entryDx=0;entryDy=0;exitX=0.5;exitY=1;exitDx=0;exitDy=0;" parent="WIyWlLk6GJQsqaUBKTNV-1" source="kVo2EOnCKwho9ZSmZPj_-15" target="kVo2EOnCKwho9ZSmZPj_-19" edge="1">
          <mxGeometry y="10" relative="1" as="geometry">
            <mxPoint as="offset" />
            <mxPoint x="440" y="765" as="sourcePoint" />
            <mxPoint x="575" y="765" as="targetPoint" />
          </mxGeometry>
        </mxCell>
        <mxCell id="kVo2EOnCKwho9ZSmZPj_-22" value="No" style="edgeStyle=orthogonalEdgeStyle;rounded=0;html=1;jettySize=auto;orthogonalLoop=1;fontSize=11;endArrow=block;endFill=0;endSize=8;strokeWidth=1;shadow=0;labelBackgroundColor=none;exitX=1;exitY=0.5;exitDx=0;exitDy=0;entryX=0;entryY=0.5;entryDx=0;entryDy=0;" parent="WIyWlLk6GJQsqaUBKTNV-1" source="kVo2EOnCKwho9ZSmZPj_-15" target="kVo2EOnCKwho9ZSmZPj_-23" edge="1">
          <mxGeometry y="10" relative="1" as="geometry">
            <mxPoint as="offset" />
            <mxPoint x="570" y="694.5" as="sourcePoint" />
            <mxPoint x="640" y="695" as="targetPoint" />
          </mxGeometry>
        </mxCell>
        <mxCell id="kVo2EOnCKwho9ZSmZPj_-23" value="轨道是否为主轨道" style="rhombus;whiteSpace=wrap;html=1;rounded=0;fillColor=#008a00;fontColor=#ffffff;strokeColor=#005700;" parent="WIyWlLk6GJQsqaUBKTNV-1" vertex="1">
          <mxGeometry x="640" y="830" width="150" height="60" as="geometry" />
        </mxCell>
        <mxCell id="kVo2EOnCKwho9ZSmZPj_-26" value="Yes" style="edgeStyle=orthogonalEdgeStyle;rounded=0;html=1;jettySize=auto;orthogonalLoop=1;fontSize=11;endArrow=block;endFill=0;endSize=8;strokeWidth=1;shadow=0;labelBackgroundColor=none;exitX=0.5;exitY=1;exitDx=0;exitDy=0;entryX=0.5;entryY=0;entryDx=0;entryDy=0;" parent="WIyWlLk6GJQsqaUBKTNV-1" source="kVo2EOnCKwho9ZSmZPj_-23" target="kihT8yTP-zsvNt_6NwiB-25" edge="1">
          <mxGeometry y="10" relative="1" as="geometry">
            <mxPoint as="offset" />
            <mxPoint x="700" y="735" as="sourcePoint" />
            <mxPoint x="715" y="965" as="targetPoint" />
            <Array as="points" />
          </mxGeometry>
        </mxCell>
        <mxCell id="kVo2EOnCKwho9ZSmZPj_-28" value="下方新建视觉轨道&lt;br&gt;并加入资源" style="whiteSpace=wrap;html=1;rounded=1;fillColor=#1ba1e2;fontColor=#ffffff;strokeColor=#006EAF;" parent="WIyWlLk6GJQsqaUBKTNV-1" vertex="1">
          <mxGeometry x="870" y="830" width="120" height="60" as="geometry" />
        </mxCell>
        <mxCell id="kVo2EOnCKwho9ZSmZPj_-30" value="No" style="edgeStyle=orthogonalEdgeStyle;rounded=0;html=1;jettySize=auto;orthogonalLoop=1;fontSize=11;endArrow=block;endFill=0;endSize=8;strokeWidth=1;shadow=0;labelBackgroundColor=none;exitX=1;exitY=0.5;exitDx=0;exitDy=0;entryX=0;entryY=0.5;entryDx=0;entryDy=0;" parent="WIyWlLk6GJQsqaUBKTNV-1" source="kVo2EOnCKwho9ZSmZPj_-23" target="kVo2EOnCKwho9ZSmZPj_-28" edge="1">
          <mxGeometry y="10" relative="1" as="geometry">
            <mxPoint as="offset" />
            <mxPoint x="560" y="705" as="sourcePoint" />
            <mxPoint x="650" y="705" as="targetPoint" />
          </mxGeometry>
        </mxCell>
        <mxCell id="kVo2EOnCKwho9ZSmZPj_-33" value="视觉轨道数大于一条&lt;br&gt;或者&lt;br&gt;主轨道有内容" style="rhombus;whiteSpace=wrap;html=1;rounded=0;fillColor=#008a00;fontColor=#ffffff;strokeColor=#005700;" parent="WIyWlLk6GJQsqaUBKTNV-1" vertex="1">
          <mxGeometry x="162.5" y="450" width="145" height="150" as="geometry" />
        </mxCell>
        <mxCell id="kVo2EOnCKwho9ZSmZPj_-34" value="Yes" style="rounded=0;html=1;jettySize=auto;orthogonalLoop=1;fontSize=11;endArrow=block;endFill=0;endSize=8;strokeWidth=1;shadow=0;labelBackgroundColor=none;edgeStyle=orthogonalEdgeStyle;entryX=0.5;entryY=0;entryDx=0;entryDy=0;exitX=0.5;exitY=1;exitDx=0;exitDy=0;" parent="WIyWlLk6GJQsqaUBKTNV-1" source="kVo2EOnCKwho9ZSmZPj_-33" target="WIyWlLk6GJQsqaUBKTNV-11" edge="1">
          <mxGeometry x="0.3333" y="20" relative="1" as="geometry">
            <mxPoint as="offset" />
            <mxPoint x="260" y="570" as="sourcePoint" />
            <mxPoint x="260" y="640" as="targetPoint" />
          </mxGeometry>
        </mxCell>
        <mxCell id="kVo2EOnCKwho9ZSmZPj_-38" value="加入资源到该轨道(主轨道)" style="rounded=1;whiteSpace=wrap;html=1;fillColor=#1ba1e2;fontColor=#ffffff;strokeColor=#006EAF;" parent="WIyWlLk6GJQsqaUBKTNV-1" vertex="1">
          <mxGeometry x="414" y="495" width="120" height="60" as="geometry" />
        </mxCell>
        <mxCell id="VnIIeza6wGG-whXCrfQa-2" value="No" style="edgeStyle=orthogonalEdgeStyle;rounded=0;html=1;jettySize=auto;orthogonalLoop=1;fontSize=11;endArrow=block;endFill=0;endSize=8;strokeWidth=1;shadow=0;labelBackgroundColor=none;exitX=1;exitY=0.5;exitDx=0;exitDy=0;entryX=0;entryY=0.5;entryDx=0;entryDy=0;" parent="WIyWlLk6GJQsqaUBKTNV-1" source="kVo2EOnCKwho9ZSmZPj_-33" target="kVo2EOnCKwho9ZSmZPj_-38" edge="1">
          <mxGeometry y="10" relative="1" as="geometry">
            <mxPoint as="offset" />
            <mxPoint x="310" y="550" as="sourcePoint" />
            <mxPoint x="424" y="555" as="targetPoint" />
          </mxGeometry>
        </mxCell>
        <mxCell id="VnIIeza6wGG-whXCrfQa-4" value="是否为包含听觉资源" style="rhombus;whiteSpace=wrap;html=1;fillColor=#008a00;strokeColor=#005700;fontColor=#ffffff;" parent="WIyWlLk6GJQsqaUBKTNV-1" vertex="1">
          <mxGeometry x="-60" y="655" width="126" height="80" as="geometry" />
        </mxCell>
        <mxCell id="kihT8yTP-zsvNt_6NwiB-1" value="加入资源到该轨道" style="whiteSpace=wrap;html=1;rounded=1;glass=0;strokeWidth=1;shadow=0;fillColor=#1ba1e2;fontColor=#ffffff;strokeColor=#006EAF;" vertex="1" parent="WIyWlLk6GJQsqaUBKTNV-1">
          <mxGeometry x="434" y="1055" width="120" height="60" as="geometry" />
        </mxCell>
        <mxCell id="kihT8yTP-zsvNt_6NwiB-2" value="No" style="edgeStyle=orthogonalEdgeStyle;rounded=0;html=1;jettySize=auto;orthogonalLoop=1;fontSize=11;endArrow=block;endFill=0;endSize=8;strokeWidth=1;shadow=0;labelBackgroundColor=none;entryX=0;entryY=0.5;entryDx=0;entryDy=0;exitX=1;exitY=0.5;exitDx=0;exitDy=0;" edge="1" parent="WIyWlLk6GJQsqaUBKTNV-1" source="kVo2EOnCKwho9ZSmZPj_-5" target="kihT8yTP-zsvNt_6NwiB-1">
          <mxGeometry y="10" relative="1" as="geometry">
            <mxPoint as="offset" />
            <mxPoint x="307.5" y="1133.5" as="sourcePoint" />
            <mxPoint x="429" y="1133.5" as="targetPoint" />
          </mxGeometry>
        </mxCell>
        <mxCell id="kihT8yTP-zsvNt_6NwiB-7" value="是否为包含听觉资源" style="rhombus;whiteSpace=wrap;html=1;fillColor=#008a00;strokeColor=#005700;fontColor=#ffffff;" vertex="1" parent="WIyWlLk6GJQsqaUBKTNV-1">
          <mxGeometry x="-260" y="325" width="126" height="80" as="geometry" />
        </mxCell>
        <mxCell id="kihT8yTP-zsvNt_6NwiB-8" value="" style="edgeStyle=orthogonalEdgeStyle;rounded=0;orthogonalLoop=1;jettySize=auto;html=1;entryX=1;entryY=0.5;entryDx=0;entryDy=0;endArrow=block;endFill=0;exitX=0;exitY=0.5;exitDx=0;exitDy=0;" edge="1" target="kihT8yTP-zsvNt_6NwiB-7" parent="WIyWlLk6GJQsqaUBKTNV-1" source="WIyWlLk6GJQsqaUBKTNV-10">
          <mxGeometry relative="1" as="geometry">
            <mxPoint x="162.5" y="370" as="sourcePoint" />
            <mxPoint x="40" y="365" as="targetPoint" />
          </mxGeometry>
        </mxCell>
        <mxCell id="kihT8yTP-zsvNt_6NwiB-9" value="No" style="edgeLabel;html=1;align=center;verticalAlign=middle;resizable=0;points=[];" vertex="1" connectable="0" parent="kihT8yTP-zsvNt_6NwiB-8">
          <mxGeometry x="0.0353" y="-1" relative="1" as="geometry">
            <mxPoint y="-14" as="offset" />
          </mxGeometry>
        </mxCell>
        <mxCell id="kihT8yTP-zsvNt_6NwiB-14" value="Yes" style="rounded=0;html=1;jettySize=auto;orthogonalLoop=1;fontSize=11;endArrow=block;endFill=0;endSize=8;strokeWidth=1;shadow=0;labelBackgroundColor=none;edgeStyle=orthogonalEdgeStyle;exitX=0.5;exitY=1;exitDx=0;exitDy=0;entryX=0.5;entryY=0;entryDx=0;entryDy=0;" edge="1" target="kihT8yTP-zsvNt_6NwiB-15" parent="WIyWlLk6GJQsqaUBKTNV-1" source="kihT8yTP-zsvNt_6NwiB-7">
          <mxGeometry x="0.3333" y="20" relative="1" as="geometry">
            <mxPoint as="offset" />
            <mxPoint x="-247" y="430" as="sourcePoint" />
            <mxPoint x="-237" y="365" as="targetPoint" />
          </mxGeometry>
        </mxCell>
        <mxCell id="kihT8yTP-zsvNt_6NwiB-15" value="鼠标在轨道&lt;br&gt;中间区域" style="rhombus;whiteSpace=wrap;html=1;rounded=0;fillColor=#008a00;fontColor=#ffffff;strokeColor=#005700;" vertex="1" parent="WIyWlLk6GJQsqaUBKTNV-1">
          <mxGeometry x="-254.5" y="495" width="115" height="90" as="geometry" />
        </mxCell>
        <mxCell id="kihT8yTP-zsvNt_6NwiB-16" value="" style="edgeStyle=orthogonalEdgeStyle;rounded=0;orthogonalLoop=1;jettySize=auto;html=1;entryX=1;entryY=0.5;entryDx=0;entryDy=0;endArrow=block;endFill=0;exitX=0;exitY=0.5;exitDx=0;exitDy=0;" edge="1" parent="WIyWlLk6GJQsqaUBKTNV-1" source="kihT8yTP-zsvNt_6NwiB-7" target="kihT8yTP-zsvNt_6NwiB-18">
          <mxGeometry relative="1" as="geometry">
            <mxPoint x="-316" y="364.5" as="sourcePoint" />
            <mxPoint x="-420" y="364.5" as="targetPoint" />
          </mxGeometry>
        </mxCell>
        <mxCell id="kihT8yTP-zsvNt_6NwiB-17" value="No" style="edgeLabel;html=1;align=center;verticalAlign=middle;resizable=0;points=[];" vertex="1" connectable="0" parent="kihT8yTP-zsvNt_6NwiB-16">
          <mxGeometry x="0.0353" y="-1" relative="1" as="geometry">
            <mxPoint y="-14" as="offset" />
          </mxGeometry>
        </mxCell>
        <mxCell id="kihT8yTP-zsvNt_6NwiB-18" value="结束" style="rounded=1;whiteSpace=wrap;html=1;fontSize=12;glass=0;strokeWidth=1;shadow=0;fillColor=#a20025;fontColor=#ffffff;strokeColor=#6F0000;" vertex="1" parent="WIyWlLk6GJQsqaUBKTNV-1">
          <mxGeometry x="-480" y="345" width="120" height="40" as="geometry" />
        </mxCell>
        <mxCell id="kihT8yTP-zsvNt_6NwiB-19" value="Yes" style="rounded=0;html=1;jettySize=auto;orthogonalLoop=1;fontSize=11;endArrow=block;endFill=0;endSize=8;strokeWidth=1;shadow=0;labelBackgroundColor=none;edgeStyle=orthogonalEdgeStyle;exitX=0.5;exitY=1;exitDx=0;exitDy=0;entryX=0.5;entryY=0;entryDx=0;entryDy=0;" edge="1" parent="WIyWlLk6GJQsqaUBKTNV-1" source="VnIIeza6wGG-whXCrfQa-4" target="kihT8yTP-zsvNt_6NwiB-20">
          <mxGeometry x="0.3333" y="20" relative="1" as="geometry">
            <mxPoint as="offset" />
            <mxPoint x="2.5" y="750" as="sourcePoint" />
            <mxPoint x="3" y="800" as="targetPoint" />
          </mxGeometry>
        </mxCell>
        <mxCell id="kihT8yTP-zsvNt_6NwiB-20" value="" style="rhombus;whiteSpace=wrap;html=1;rounded=0;fillColor=#008a00;fontColor=#ffffff;strokeColor=#005700;" vertex="1" parent="WIyWlLk6GJQsqaUBKTNV-1">
          <mxGeometry x="-69.5" y="785" width="145" height="150" as="geometry" />
        </mxCell>
        <mxCell id="kihT8yTP-zsvNt_6NwiB-21" value="" style="edgeStyle=orthogonalEdgeStyle;rounded=0;orthogonalLoop=1;jettySize=auto;html=1;entryX=1;entryY=0.5;entryDx=0;entryDy=0;endArrow=block;endFill=0;exitX=0;exitY=0.5;exitDx=0;exitDy=0;" edge="1" target="kihT8yTP-zsvNt_6NwiB-23" parent="WIyWlLk6GJQsqaUBKTNV-1" source="VnIIeza6wGG-whXCrfQa-4">
          <mxGeometry relative="1" as="geometry">
            <mxPoint x="-69.5" y="695" as="sourcePoint" />
            <mxPoint x="-229.5" y="694.5" as="targetPoint" />
          </mxGeometry>
        </mxCell>
        <mxCell id="kihT8yTP-zsvNt_6NwiB-22" value="No" style="edgeLabel;html=1;align=center;verticalAlign=middle;resizable=0;points=[];" vertex="1" connectable="0" parent="kihT8yTP-zsvNt_6NwiB-21">
          <mxGeometry x="0.0353" y="-1" relative="1" as="geometry">
            <mxPoint y="-14" as="offset" />
          </mxGeometry>
        </mxCell>
        <mxCell id="kihT8yTP-zsvNt_6NwiB-23" value="最上面新建视觉轨道&lt;br&gt;并加入资源" style="rounded=1;whiteSpace=wrap;html=1;fontSize=12;glass=0;strokeWidth=1;shadow=0;fillColor=#1ba1e2;fontColor=#ffffff;strokeColor=#006EAF;" vertex="1" parent="WIyWlLk6GJQsqaUBKTNV-1">
          <mxGeometry x="-289.5" y="675" width="120" height="40" as="geometry" />
        </mxCell>
        <mxCell id="kihT8yTP-zsvNt_6NwiB-24" value="上方新建视觉轨道&lt;br&gt;并加入资源" style="whiteSpace=wrap;html=1;rounded=1;glass=0;strokeWidth=1;shadow=0;fillColor=#1ba1e2;fontColor=#ffffff;strokeColor=#006EAF;" vertex="1" parent="WIyWlLk6GJQsqaUBKTNV-1">
          <mxGeometry x="860" y="1055" width="120" height="60" as="geometry" />
        </mxCell>
        <mxCell id="kihT8yTP-zsvNt_6NwiB-25" value="是否包含听觉资源" style="rhombus;whiteSpace=wrap;html=1;fillColor=#008a00;fontColor=#ffffff;strokeColor=#005700;" vertex="1" parent="WIyWlLk6GJQsqaUBKTNV-1">
          <mxGeometry x="650" y="1025" width="130" height="120" as="geometry" />
        </mxCell>
        <mxCell id="kihT8yTP-zsvNt_6NwiB-26" value="No" style="edgeStyle=orthogonalEdgeStyle;rounded=0;html=1;jettySize=auto;orthogonalLoop=1;fontSize=11;endArrow=block;endFill=0;endSize=8;strokeWidth=1;shadow=0;labelBackgroundColor=none;exitX=1;exitY=0.5;exitDx=0;exitDy=0;" edge="1" parent="WIyWlLk6GJQsqaUBKTNV-1" source="kihT8yTP-zsvNt_6NwiB-25" target="kihT8yTP-zsvNt_6NwiB-24">
          <mxGeometry y="10" relative="1" as="geometry">
            <mxPoint as="offset" />
            <mxPoint x="790" y="1084.5" as="sourcePoint" />
            <mxPoint x="870" y="1084.5" as="targetPoint" />
          </mxGeometry>
        </mxCell>
        <mxCell id="kihT8yTP-zsvNt_6NwiB-27" value="Yes" style="edgeStyle=orthogonalEdgeStyle;rounded=0;html=1;jettySize=auto;orthogonalLoop=1;fontSize=11;endArrow=block;endFill=0;endSize=8;strokeWidth=1;shadow=0;labelBackgroundColor=none;exitX=0.5;exitY=1;exitDx=0;exitDy=0;entryX=0.5;entryY=0;entryDx=0;entryDy=0;" edge="1" parent="WIyWlLk6GJQsqaUBKTNV-1" source="kihT8yTP-zsvNt_6NwiB-25" target="kihT8yTP-zsvNt_6NwiB-28">
          <mxGeometry y="10" relative="1" as="geometry">
            <mxPoint as="offset" />
            <mxPoint x="714.5" y="1160" as="sourcePoint" />
            <mxPoint x="715" y="1230" as="targetPoint" />
            <Array as="points" />
          </mxGeometry>
        </mxCell>
        <mxCell id="kihT8yTP-zsvNt_6NwiB-28" value="下方新建听觉轨道&lt;br&gt;并加入资源" style="whiteSpace=wrap;html=1;rounded=1;glass=0;strokeWidth=1;shadow=0;fillColor=#1ba1e2;fontColor=#ffffff;strokeColor=#006EAF;" vertex="1" parent="WIyWlLk6GJQsqaUBKTNV-1">
          <mxGeometry x="655" y="1220" width="120" height="60" as="geometry" />
        </mxCell>
      </root>
    </mxGraphModel>
  </diagram>
</mxfile>
